<svg width="151" height="74" viewBox="0 0 151 74" fill="none" xmlns="http://www.w3.org/2000/svg">
<path d="M42.017 33.2338V68.1429H33.5795V33.2338H42.017ZM63.473 31.5974L52.223 73.3929H45.1151L56.3651 31.5974H63.473ZM99.5284 50.6883C99.5284 54.5292 98.7898 57.7849 97.3125 60.4554C95.8352 63.1258 93.8352 65.1542 91.3125 66.5406C88.8011 67.9269 85.983 68.6201 82.858 68.6201C79.7216 68.6201 76.8977 67.9213 74.3864 66.5235C71.875 65.1258 69.8807 63.0974 68.4034 60.4383C66.9375 57.7679 66.2045 54.5179 66.2045 50.6883C66.2045 46.8474 66.9375 43.5917 68.4034 40.9213C69.8807 38.2508 71.875 36.2224 74.3864 34.836C76.8977 33.4497 79.7216 32.7565 82.858 32.7565C85.983 32.7565 88.8011 33.4497 91.3125 34.836C93.8352 36.2224 95.8352 38.2508 97.3125 40.9213C98.7898 43.5917 99.5284 46.8474 99.5284 50.6883ZM90.9034 50.6883C90.9034 48.4156 90.5795 46.4951 89.9318 44.9269C89.2955 43.3588 88.375 42.1713 87.1705 41.3644C85.9773 40.5576 84.5398 40.1542 82.858 40.1542C81.1875 40.1542 79.75 40.5576 78.5455 41.3644C77.3409 42.1713 76.4148 43.3588 75.767 44.9269C75.1307 46.4951 74.8125 48.4156 74.8125 50.6883C74.8125 52.961 75.1307 54.8815 75.767 56.4497C76.4148 58.0179 77.3409 59.2054 78.5455 60.0122C79.75 60.819 81.1875 61.2224 82.858 61.2224C84.5398 61.2224 85.9773 60.819 87.1705 60.0122C88.375 59.2054 89.2955 58.0179 89.9318 56.4497C90.5795 54.8815 90.9034 52.961 90.9034 50.6883Z" fill="white"/>
<rect x="0.5" y="0.5" width="15" height="15" rx="3.5" fill="#18181B" stroke="#27272A"/>
<rect x="20.5" y="0.5" width="15" height="15" rx="3.5" fill="#365314" stroke="#4D7C0F"/>
<rect x="40.5" y="0.5" width="15" height="15" rx="3.5" fill="#3F6212" stroke="#65A30D"/>
<rect x="60.5" y="0.5" width="15" height="15" rx="3.5" fill="#4D7C0F" stroke="#84CC16"/>
<rect x="80.5" y="0.5" width="15" height="15" rx="3.5" fill="#65A30D" stroke="#A3E635"/>
<rect x="100.5" y="0.5" width="15" height="15" rx="3.5" fill="#84CC16" stroke="#BEF264"/>
</svg>
